<svg width="150" height="25" viewBox="0 0 150 25" fill="none" xmlns="http://www.w3.org/2000/svg">
<path d="M0.144 14.176C0.144 17.952 0.272 24.64 11.312 24.64C22.384 24.64 22.512 17.952 22.512 14.176V1.152H17.712V14.048C17.712 17.216 17.584 21.056 11.312 21.056C5.072 21.056 4.944 17.216 4.944 14.048V1.152H0.144V14.176ZM26.4483 24H30.8643V14.88C30.8643 11.264 33.8403 9.984 36.1443 9.984C39.7923 9.984 40.4003 12.064 40.4003 13.888V24H44.8163V12.48C44.8163 7.904 41.2643 6.592 37.6163 6.592C34.6083 6.592 32.3683 7.776 30.9283 9.6H30.8643V7.04H26.4483V24ZM48.3858 24H52.8018V14.88C52.8018 11.264 55.7778 9.984 58.0818 9.984C61.7298 9.984 62.3378 12.064 62.3378 13.888V24H66.7538V12.48C66.7538 7.904 63.2018 6.592 59.5538 6.592C56.5458 6.592 54.3058 7.776 52.8658 9.6H52.8018V0.768H48.3858V24ZM88.5312 12.096C88.5312 9.888 88.2753 6.4 79.4113 6.4C74.3873 6.4 71.0913 7.776 70.4513 12.224H74.7713C74.9313 10.336 76.4993 9.408 79.4113 9.408C81.9713 9.408 84.2113 9.888 84.2113 11.84C84.2113 13.152 83.5393 13.376 77.2033 13.984C74.3873 14.24 69.5872 14.656 69.5872 19.328C69.5872 22.656 72.0833 24.64 76.4993 24.64C81.4593 24.64 83.6033 23.136 84.4673 22.304C84.5953 22.944 84.9153 24.48 87.7953 24.48C89.2993 24.48 90.0673 24.256 90.9313 24.096V20.992C90.5793 21.056 89.9073 21.088 89.4913 21.088C89.2033 21.088 88.5312 21.056 88.5312 20.128V12.096ZM84.1153 17.184C84.1153 20.928 80.1153 21.824 77.7473 21.824C76.2433 21.824 74.1953 21.408 74.1953 19.168C74.1953 17.728 74.9953 16.992 78.3233 16.608C81.4593 16.256 82.8353 16.096 84.1153 15.552V17.184ZM91.9905 18.688C92.1505 23.872 97.8785 24.64 101.495 24.64C106.743 24.64 110.871 23.168 110.871 18.848C110.871 14.912 107.222 14.368 101.655 13.568C97.3985 12.96 96.9825 12.736 96.9825 11.36C96.9825 10.464 98.3265 9.408 100.823 9.408C102.327 9.408 105.271 9.696 105.623 12.224H110.231C109.975 6.784 103.671 6.4 101.047 6.4C98.1985 6.4 92.5665 7.04 92.5665 11.872C92.5665 15.744 95.3185 16.352 100.567 17.056C105.335 17.696 106.071 18.144 106.071 19.456C106.071 21.056 103.671 21.632 101.463 21.632C99.8625 21.632 96.9185 21.248 96.7905 18.688H91.9905ZM133.669 16.64V16C133.669 11.04 130.789 6.4 123.269 6.4C117.253 6.4 113.061 10.016 113.061 15.68C113.061 20.192 115.909 24.64 123.557 24.64C130.021 24.64 132.325 20.896 133.285 19.008H128.485C127.621 20.416 126.341 21.44 123.429 21.44C119.045 21.44 117.765 18.528 117.669 16.64H133.669ZM117.669 13.824C118.405 10.368 121.285 9.408 123.333 9.408C125.509 9.408 128.517 10.432 129.061 13.824H117.669ZM136.826 24H141.242V0.768H136.826V24ZM145.076 24H149.492V0.768H145.076V24Z" fill="white"/>
</svg>
